<svg xmlns="http://www.w3.org/2000/svg" xmlns:xlink="http://www.w3.org/1999/xlink" version="1.1" id="Layer_1" x="0px" y="0px" viewBox="7.36 -4.2235 100.0 126.77175" enable-background="new 2.36 5.167 100 93.905" xml:space="preserve" height="100px" width="100px">
<g>
	<path d="M29.569,56.134c0.457,0.111,0.895-0.216,0.94-0.683c0.392-3.944-0.985-7.289-3.432-7.855   c-2.429-0.562-5.113,1.797-6.505,5.465c-0.166,0.436,0.076,0.92,0.529,1.028L29.569,56.134z"/>
	<path d="M20.65,56.033c-0.456-0.11-0.894,0.215-0.94,0.682c-0.399,3.953,0.979,7.309,3.431,7.876   c2.434,0.563,5.123-1.805,6.513-5.484c0.165-0.435-0.077-0.919-0.529-1.027L20.65,56.033z"/>
</g>
<g>
	<path d="M23.466,67.351c-0.162-0.273-0.527-0.332-0.775-0.135c-2.098,1.669-3.071,3.913-2.193,5.366   c0.872,1.443,3.281,1.634,5.716,0.58c0.289-0.125,0.41-0.47,0.25-0.741L23.466,67.351z"/>
	<path d="M27.619,71.726c0.162,0.273,0.526,0.332,0.774,0.135c2.105-1.67,3.084-3.919,2.204-5.376   c-0.873-1.446-3.289-1.635-5.729-0.574c-0.288,0.126-0.409,0.47-0.249,0.741L27.619,71.726z"/>
</g>
<g>
	<path d="M37.923,62.756c0.65-0.259,0.923-1.053,0.546-1.643c-1.642-2.57-4.016-3.958-5.848-3.209   c-1.819,0.744-2.542,3.365-1.938,6.323c0.14,0.68,0.877,1.062,1.522,0.805L37.923,62.756z"/>
	<path d="M32.685,66.64c-0.568,0.226-0.8,0.917-0.479,1.437c1.645,2.671,4.078,4.131,5.948,3.367c1.856-0.759,2.572-3.472,1.9-6.504   c-0.132-0.592-0.769-0.928-1.333-0.703L32.685,66.64z"/>
</g>
<path d="M95.515,20.863h-1.666v-1.316c0-1.875-1.526-3.411-3.411-3.411H77.064c-8.527-0.678-15.987-3.999-16.157-4.059  c-0.399-0.1-0.808-0.14-1.207-0.14h-6.981v-0.359c0-0.938-0.768-1.715-1.705-1.715h-8.547c-0.369,0-0.758,0.04-1.127,0.13  c-0.16,0.06-7.121,3.152-15.06,3.79H13.813c-1.755,0-3.182,1.426-3.182,3.182v1.217H9.075c-0.937,0-1.715,0.778-1.715,1.715v3.182  h1.835l6.742,58.075c1.336,3.191,7.839,5.545,15.898,5.545c8.068,0,14.561-2.354,15.898-5.545l2.733-23.527l3.58,30.798  c1.426,3.421,8.398,5.954,17.055,5.954c8.647,0,15.628-2.533,17.055-5.954l7.241-62.304h1.965v-3.421  C97.36,21.691,96.522,20.863,95.515,20.863z M59.7,12.984c0.319,0,0.648,0.05,0.868,0.08c0.05,0.03,4.109,1.825,9.664,3.072  c0.828,0.189,7.041,0.898,7.929,1.047h12.277c1.297,0,2.364,1.067,2.364,2.364v1.316H49.737v-7.091c0-0.429,0.359-0.788,0.788-0.788  C50.525,12.984,59.7,12.984,59.7,12.984z M11.609,16.964c0-1.217,0.997-2.204,2.204-2.204h11.439c0.828-0.15,6.622-0.808,7.39-0.977  c5.186-1.167,8.956-2.842,9.006-2.872c0.209-0.03,0.509-0.07,0.818-0.07h8.547c0.399,0,0.728,0.339,0.728,0.738v0.359h-1.217  c-1.007,0-1.835,0.828-1.835,1.835v4.408H11.609V16.964z M8.347,22.1v-2.204c0-0.399,0.329-0.738,0.728-0.738H48.69v1.705h-2.533  c-0.798,0-1.476,0.519-1.725,1.237C44.431,22.1,8.347,22.1,8.347,22.1z M46.984,80.175c-0.03,0.329-0.15,0.658-0.339,0.977  c-1.516,2.583-7.68,4.568-14.811,4.568c-7.121,0-13.295-1.985-14.811-4.568c-0.199-0.319-0.309-0.648-0.339-0.977l-6.503-57.098  h34.139v3.042h2.483l3.201,27.566L46.984,80.175z M87.357,87.366c-0.03,0.359-0.16,0.718-0.369,1.057  C85.362,91.196,78.75,93.32,71.1,93.32s-14.262-2.124-15.888-4.897c-0.209-0.339-0.339-0.698-0.369-1.057l-6.981-61.247h25.253  c0,0.09,0.02,0.18,0.06,0.269c0.748,1.476,0.559,8.876,0.18,15.02h-4.348c-1.307,0-2.364,1.057-2.364,2.354v9.844  c0,1.297,1.057,2.354,2.364,2.354h9.415c1.297,0,2.354-1.057,2.354-2.354v-9.844c0-1.297-1.057-2.354-2.354-2.354h-3.87  c0.299-4.797,0.648-12.936-0.209-15.289h19.987L87.357,87.366z M73.663,45.398c0.01,0.01,0.03,0.01,0.05,0.01  c0.309,0,0.568-0.239,0.588-0.549c0.03-0.329,0.09-1.137,0.17-2.254h3.949c0.638,0,1.167,0.519,1.167,1.157v9.844  c0,0.638-0.529,1.157-1.167,1.157h-9.415c-0.648,0-1.167-0.519-1.167-1.157v-9.844c0-0.638,0.519-1.157,1.167-1.157h4.269  c-0.05,0.748-0.11,1.476-0.16,2.154C73.085,45.089,73.334,45.378,73.663,45.398z M96.303,25.062H45.369v-2.364  c0-0.429,0.349-0.788,0.788-0.788h49.358c0.429,0,0.788,0.359,0.788,0.788C96.303,22.698,96.303,25.062,96.303,25.062z"/>
<text x="2.36" y="115.505375" font-size="4.69525" font-weight="bold" font-family="Helvetica Neue, Helvetica, Arial-Unicode, Arial, Sans-serif" fill="#000000">Created by Claire Jones</text><text x="2.36" y="120.200625" font-size="4.69525" font-weight="bold" font-family="Helvetica Neue, Helvetica, Arial-Unicode, Arial, Sans-serif" fill="#000000">from the Noun Project</text></svg>