<svg xmlns="http://www.w3.org/2000/svg" xmlns:xlink="http://www.w3.org/1999/xlink" version="1.1" id="Layer_1" x="0px" y="0px" width="50.4px" height="50.4px" viewBox="2.52 -5.04 50.4 68.04" enable-background="new 0 0 50.4 50.4" xml:space="preserve">
<g id="Layer_1_1_">
</g>
<path d="M23.94,38.405c0.08,0.38,0.07,0.775-0.037,1.155c-0.095,0.354-0.288,0.687-0.55,0.967c-0.888,0.899-2.341,0.92-3.248,0.045  l-4.5-4.389l-0.866,1.06l4.501,4.395c1.229,1.194,3.899,1.116,5.105-0.108c0.42-0.427,1.01-1.396,1.136-1.959l11.861,0.01  c1.278,0,2.541,1.192,2.541,2.462c0,1.287-0.836,2.859-2.594,2.859H18.284c-0.822-0.03-1.847-0.45-2.565-1.055l-9.927-7.453  l-5.781,0.025L0,27.766h0.05v-0.078h11.532c0,0,1.208,0.027,2.04,0.51c0.766,0.447,1.447,1.103,1.447,1.103l8.231,7.993  C23.613,37.595,23.833,37.977,23.94,38.405z"/>
<path d="M46.037,25.761c0.079-0.149,0.18-0.29,0.239-0.455c0.391-1.05,0.34-2.199-0.145-3.236c-0.436-0.927-1.2-1.692-2.135-2.154  c0.105-1.902-1.114-3.717-3.099-4.411c-0.925-0.32-1.93-0.35-2.854-0.105c-0.552-0.762-1.343-1.352-2.279-1.677  c-0.521-0.183-1.061-0.272-1.608-0.272c-1.799,0-3.419,1.01-4.129,2.552c-1.864,0.042-3.519,1.165-4.137,2.816  c-0.173,0.463-0.259,0.945-0.262,1.428c-1.682,0.189-3.134,1.262-3.704,2.791c-0.335,0.893-0.33,1.845-0.045,2.725H17.28  l9.749,11.207h14.034l9.327-11.207H46.037z M23.976,23.802c0.37-0.989,1.571-1.584,2.738-1.339l1.977,0.415l-0.733-1.883  c-0.181-0.467-0.188-0.952-0.016-1.407c0.359-0.97,1.496-1.575,2.668-1.354l1.064,0.19l0.203-1.064  c0.022-0.107,0.048-0.215,0.087-0.317c0.408-1.093,1.833-1.688,3.083-1.25c0.695,0.24,1.238,0.742,1.485,1.375l0.455,1.149  l1.087-0.59c0.622-0.335,1.403-0.397,2.104-0.152c1.215,0.42,1.895,1.614,1.539,2.714l-0.359,1.109l1.135,0.285  c0.069,0.018,0.14,0.035,0.22,0.065c0.645,0.222,1.164,0.68,1.439,1.255c0.229,0.494,0.255,1.044,0.069,1.539  c-0.209,0.567-0.68,1-1.299,1.22H24.317C23.87,25.186,23.732,24.457,23.976,23.802z"/>
<polygon points="29.636,13.455 28.45,13.455 28.45,6.617 29.636,6.617 29.636,13.455 "/>
<polygon points="33.155,10.976 31.969,10.976 31.969,1.898 33.155,1.898 33.155,10.976 "/>
<polygon points="36.675,11.615 35.488,11.615 35.488,5.817 36.675,5.817 36.675,11.615 "/>
<text x="0.0" y="59.22" font-size="2.52" font-weight="bold" font-family="Helvetica Neue, Helvetica, Arial-Unicode, Arial, Sans-serif" fill="#000000">Created by Luis Prado</text><text x="0.0" y="61.74" font-size="2.52" font-weight="bold" font-family="Helvetica Neue, Helvetica, Arial-Unicode, Arial, Sans-serif" fill="#000000">from the Noun Project</text></svg>