<svg xmlns="http://www.w3.org/2000/svg" xmlns:xlink="http://www.w3.org/1999/xlink" version="1.1" id="Layer_1" x="0px" y="0px" width="100px" height="100px" viewBox="5.0 -10.0 100.0 135.0" enable-background="new 0 0 100 100" xml:space="preserve">
<path d="M75.6,84.1c-0.4,0.6-1,0.9-1.7,0.9H26.2c-0.7,0-1.3-0.3-1.7-0.9c-0.4-0.6-0.4-1.3-0.1-1.9L40,47.6V41h-1c-1.1,0-2-0.9-2-2  s0.9-2,2-2h3c1.1,0,2,0.9,2,2v9c0,0.3-0.1,0.6-0.2,0.8L29.3,81h41.5L56.2,48.8C56.1,48.6,56,48.3,56,48v-9c0-1.1,0.9-2,2-2h3  c1.1,0,2,0.9,2,2s-0.9,2-2,2h-1v6.6l15.7,34.6C76,82.8,75.9,83.5,75.6,84.1z M56.5,56.8c-2.1,0-3.6,0.5-4.9,1  c-1.1,0.4-1.9,0.7-3.1,0.7c-2.9,0-5.5-0.6-5.5-0.6c-1.1-0.2-2.1,0.4-2.4,1.5c-0.2,1.1,0.4,2.1,1.5,2.4c0.1,0,3.1,0.7,6.4,0.7  c1.9,0,3.2-0.5,4.4-0.9c1.1-0.4,2.1-0.7,3.6-0.7c1.1,0,2-0.9,2-2S57.6,56.8,56.5,56.8z M42.9,71.2c-0.4,0.4-0.6,0.9-0.6,1.4  c0,0.5,0.2,1,0.6,1.4c0.4,0.4,0.9,0.6,1.4,0.6c0.5,0,1-0.2,1.4-0.6c0.4-0.4,0.6-0.9,0.6-1.4c0-0.5-0.2-1-0.6-1.4  C45,70.4,43.6,70.4,42.9,71.2z M55.1,66.2c-0.4,0.4-0.6,0.9-0.6,1.4c0,0.5,0.2,1,0.6,1.4c0.4,0.4,0.9,0.6,1.4,0.6  c0.5,0,1-0.2,1.4-0.6c0.4-0.4,0.6-0.9,0.6-1.4c0-0.5-0.2-1-0.6-1.4C57.2,65.5,55.9,65.5,55.1,66.2z M49.1,24.8  c0-3.1,2.5-5.6,5.6-5.6c3.1,0,5.6,2.5,5.6,5.6s-2.5,5.6-5.6,5.6C51.6,30.5,49.1,28,49.1,24.8z M52.1,24.8c0,1.5,1.2,2.6,2.6,2.6  c1.5,0,2.6-1.2,2.6-2.6s-1.2-2.6-2.6-2.6C53.3,22.2,52.1,23.4,52.1,24.8z M37.3,14c0-3.1,2.5-5.6,5.6-5.6c3.1,0,5.6,2.5,5.6,5.6  s-2.5,5.6-5.6,5.6C39.8,19.7,37.3,17.1,37.3,14z M40.3,14c0,1.5,1.2,2.6,2.6,2.6c1.5,0,2.6-1.2,2.6-2.6s-1.2-2.6-2.6-2.6  C41.5,11.4,40.3,12.6,40.3,14z"/>
<text x="0.0" y="117.5" font-size="5.0" font-weight="bold" font-family="Helvetica Neue, Helvetica, Arial-Unicode, Arial, Sans-serif" fill="#000000">Created by Felix Westphal</text><text x="0.0" y="122.5" font-size="5.0" font-weight="bold" font-family="Helvetica Neue, Helvetica, Arial-Unicode, Arial, Sans-serif" fill="#000000">from the Noun Project</text></svg>