<svg xmlns="http://www.w3.org/2000/svg" xmlns:xlink="http://www.w3.org/1999/xlink" version="1.0" x="0px" y="0px" width="100px" height="100px" viewBox="0 0 100 100" enable-background="new 0 0 100 100" xml:space="preserve">
<g id="Captions">
</g>
<g id="Your_Icon">
	<path fill="#000000" d="M80.849,67.021c-3.52,0-6.384,2.861-6.384,6.384s2.865,6.384,6.384,6.384c3.526,0,6.384-2.86,6.384-6.384   S84.375,67.021,80.849,67.021z M80.849,76.595c-1.76,0-3.188-1.428-3.188-3.19c0-1.762,1.428-3.194,3.188-3.194   c1.766,0,3.194,1.432,3.194,3.194C84.043,75.167,82.615,76.595,80.849,76.595z"/>
	<path fill="#000000" d="M25.535,67.021c-3.528,0-6.384,2.861-6.384,6.384s2.856,6.384,6.384,6.384c3.52,0,6.376-2.86,6.376-6.384   S29.055,67.021,25.535,67.021z M25.535,76.595c-1.766,0-3.196-1.428-3.196-3.19c0-1.762,1.43-3.194,3.196-3.194   c1.76,0,3.188,1.432,3.188,3.194C28.723,75.167,27.295,76.595,25.535,76.595z"/>
	<rect x="2.126" y="20.211" fill="#000000" width="57.446" height="44.682"/>
	<path fill="#000000" d="M2.126,67.021C0.952,67.021,0,67.973,0,69.149c0,1.176,0.952,2.128,2.126,2.128h15.173   c0.435-1.676,1.355-3.145,2.612-4.256H2.126z"/>
	<path fill="#000000" d="M99.319,52.706l-0.002-0.012c0,0-0.014-0.008-0.026-0.016c-0.208-0.187-0.452-0.33-0.728-0.423   c-1.196-0.712-3.481-2.104-4.287-2.844c-0.12-0.11-0.318-0.362-0.391-0.505c-2.187-4.191-6.651-22.31-6.651-22.31   c0-1.176-0.952-2.128-2.126-2.128l-19.151-0.004v0.008v-0.008h-4.252v42.558H31.15c1.257,1.111,2.177,2.58,2.614,4.256H72.62l0,0   c0.95-3.67,4.27-6.384,8.23-6.384c3.965,0,7.286,2.714,8.236,6.384h8.789c1.174,0,2.126-0.952,2.126-2.128V54.256   C100,53.642,99.734,53.092,99.319,52.706z M82.981,39.364c0,1.172-0.952,2.124-2.132,2.124h-8.51c-1.17,0-2.114-0.944-2.124-2.112   c0-0.004-0.002-0.008-0.002-0.008c0-2.564,0-6.734,0-8.516c0-0.004,0.002-0.004,0.002-0.008c0.002-1.172,0.952-2.12,2.124-2.12   c1.45,0,5.847,0,8.51,0c1.18,0,2.132,0.952,2.132,2.128V39.364z"/>
</g>
</svg>