<svg xmlns="http://www.w3.org/2000/svg" xmlns:xlink="http://www.w3.org/1999/xlink" version="1.1" id="Layer_1" x="0px" y="0px" width="100px" height="100px" viewBox="5.0 -10.0 100.0 135.0" enable-background="new 0 0 100 100" xml:space="preserve">
<path d="M87.426,16.413H12.574c-1.06,0-1.919,0.859-1.919,1.919v2.879c0,1.061,0.859,1.919,1.919,1.919h0.959v49.901v8.637  c0,1.06,0.859,1.919,1.919,1.919h25.91h17.273h25.91c1.06,0,1.919-0.859,1.919-1.919v-8.637V23.13h0.959  c1.06,0,1.919-0.858,1.919-1.919v-2.879C89.345,17.272,88.486,16.413,87.426,16.413z M58.637,50.959H41.363  c-1.06,0-1.919,0.859-1.919,1.919v18.233H17.373V38.481c0.739,0.31,1.549,0.483,2.398,0.483c1.675,0,3.197-0.663,4.319-1.74  c1.121,1.078,2.644,1.74,4.318,1.74c1.675,0,3.198-0.663,4.319-1.74c1.121,1.078,2.644,1.74,4.318,1.74s3.197-0.663,4.318-1.74  c1.122,1.078,2.644,1.74,4.319,1.74c1.674,0,3.196-0.663,4.318-1.74c1.122,1.078,2.644,1.74,4.318,1.74  c1.675,0,3.197-0.663,4.319-1.74c1.121,1.078,2.644,1.74,4.318,1.74s3.197-0.663,4.318-1.74c1.121,1.078,2.644,1.74,4.319,1.74  c1.674,0,3.197-0.663,4.318-1.74c1.122,1.078,2.644,1.74,4.319,1.74c0.85,0,1.659-0.173,2.398-0.483v32.631H60.556V52.879  C60.556,51.819,59.697,50.959,58.637,50.959z M65.354,23.13v9.597c0,1.323-1.077,2.399-2.399,2.399s-2.399-1.076-2.399-2.399V23.13  H65.354z M56.717,23.13v9.597c0,1.323-1.076,2.399-2.399,2.399c-1.322,0-2.398-1.076-2.398-2.399V23.13H56.717z M48.081,23.13v9.597  c0,1.323-1.076,2.399-2.398,2.399c-1.323,0-2.399-1.076-2.399-2.399V23.13H48.081z M39.444,23.13v9.597  c0,1.323-1.076,2.399-2.399,2.399s-2.399-1.076-2.399-2.399V23.13H39.444z M30.808,23.13v9.597c0,1.323-1.077,2.399-2.4,2.399  c-1.322,0-2.398-1.076-2.398-2.399V23.13H30.808z M73.991,32.727c0,1.323-1.076,2.399-2.398,2.399c-1.323,0-2.4-1.076-2.4-2.399  V23.13h4.798V32.727z M22.17,23.13v9.597c0,1.323-1.077,2.399-2.399,2.399c-1.322,0-2.398-1.076-2.398-2.399V23.13H22.17z   M17.373,74.951h22.071v4.798H17.373V74.951z M43.283,73.031V54.798h13.435v18.233v6.717H43.283V73.031z M82.627,79.749H60.556  v-4.798h22.071V79.749z M82.627,32.727c0,1.323-1.076,2.399-2.398,2.399c-1.323,0-2.399-1.076-2.399-2.399V23.13h4.798V32.727z"/>
<text x="0.0" y="117.5" font-size="5.0" font-weight="bold" font-family="Helvetica Neue, Helvetica, Arial-Unicode, Arial, Sans-serif" fill="#000000">Created by Gabriele Garofalo</text><text x="0.0" y="122.5" font-size="5.0" font-weight="bold" font-family="Helvetica Neue, Helvetica, Arial-Unicode, Arial, Sans-serif" fill="#000000">from the Noun Project</text></svg>